<svg enable-background="new 0 0 100 100" height="316.227766" viewBox="0 0 100 100" width="316.227766" xmlns="http://www.w3.org/2000/svg" xmlns:xlink="http://www.w3.org/1999/xlink"><clipPath id="a"><path d="m17.31 17.31h65.39v65.39h-65.39z"/></clipPath><clipPath id="b"><path d="m17.31 17.31h65.39v65.39h-65.39z"/></clipPath><clipPath id="c"><path d="m17.31 50c0 18.06 14.64 32.7 32.69 32.7s32.7-14.64 32.7-32.7-14.64-32.69-32.69-32.69c-18.06 0-32.7 14.63-32.7 32.69"/></clipPath><path d="m98.26 50c0 26.65-21.61 48.26-48.26 48.26s-48.26-21.61-48.26-48.26 21.61-48.26 48.26-48.26 48.26 21.61 48.26 48.26" fill="#fff"/><path d="m50 100c-27.57 0-50-22.43-50-50s22.43-50 50-50 50 22.43 50 50-22.43 50-50 50m0-96.51c-25.65 0-46.51 20.86-46.51 46.51s20.86 46.52 46.51 46.52 46.51-20.87 46.51-46.51-20.86-46.52-46.51-46.52" fill="#d9dad8"/><g fill="#565856"><path d="m17.08 25.03-.55.2c.04-.33-.03-.65-.22-.95.12-.08.25-.15.38-.21s.2-.08.22-.06c.01.02.01.04-.01.07-.01.04-.01.09.02.14.05.11.09.19.1.25.07.19.08.38.06.56m5.53.63c-.21-.16-.45-.25-.74-.27.23-.23.45-.47.66-.71.09-.1.14-.19.15-.26 0-.14-.21-.44-.63-.89l-1.02 1.18c.28.43.39.89.33 1.38-.06.53-.34 1.19-.83 1.98-.1-.04-.23-.07-.39-.09s-.3-.02-.43-.01c.4-.62.66-1.13.76-1.53.09-.37.07-.7-.07-1l-1.1 1.26-.47-.41-.33.38-.97-.84.06-.06c-.2-.04-.37-.04-.53-.02.2-.37.31-.69.33-.95.02-.24-.04-.47-.19-.69-.11-.17-.31-.39-.6-.66l.5-.58c.36.33.61.62.76.88.44-.17.8-.29 1.08-.37l-.01.73c-.16.03-.44.11-.86.25.04.31-.01.65-.16 1.03l.88-1.02.89-1.02c-.21-.04-.41-.04-.6-.01.18-.36.28-.67.3-.92.01-.23-.05-.46-.18-.68-.1-.16-.29-.37-.55-.63l.51-.58c.35.34.59.63.74.87.6-.24 1.11-.42 1.5-.54l.01.53.21-.23.96.84-.39.45c.03.03.09.09.18.17.43.44.73.77.91 1.01.19.24.28.44.29.59.01.21-.07.42-.24.65-.15.16-.39.43-.72.79m-4.24-2.37-.48.26c-.08-.32-.17-.59-.27-.81.16-.1.32-.19.48-.26s.24-.1.24-.08-.01.04-.02.06c-.04.04-.05.08-.04.13.01.03.01.07.02.13s.01.1.02.13c.01.08.03.21.04.36 0 .04.01.07.01.08m.72-.6-.56.21c.05-.32-.03-.63-.23-.94.14-.09.27-.16.39-.22.13-.06.21-.08.22-.06s.01.04 0 .07c-.01.05-.01.09.02.14.05.11.09.2.11.26.06.18.08.36.05.54m-.1 3.31.99-1.14c-.09-.09-.22-.23-.39-.41l-.52.59-.51.59zm1.5-5.08-.49.27c-.06-.33-.14-.62-.26-.87.16-.11.33-.2.5-.27.17-.08.25-.11.25-.08 0 .02-.01.04-.02.07-.03.04-.04.08-.04.14 0 .04.01.11.02.19 0 .04.01.06.01.08.01.09.02.23.03.4-.01.03 0 .05 0 .07m-.58 2.16.62-.71.62-.71c-.27.07-.62.18-1.06.34.04.33-.02.69-.18 1.08m.68 1.08.68-.78.68-.78-.42-.37-1.33 1.53c.12.12.25.25.39.4"/><path d="m28.19 20.63c-.22-.07-.46-.1-.71-.1-1.04.94-1.75 1.58-2.15 1.92l-.47-.45c.45-.39.83-.71 1.12-.95l-.23-.31-.51.38c-.12.09-.28.22-.49.4-.02 0-.08-.07-.19-.22s-.16-.23-.16-.25c.17-.11.35-.23.52-.36l.51-.38-.15-.2-.99.75-.59-.79-.6-.8.99-.75-.15-.2-.57.43c-.13.1-.31.24-.55.45-.02 0-.08-.08-.2-.23-.11-.15-.17-.24-.17-.26.2-.13.4-.27.59-.4l.57-.43-.16-.21c-.36.31-.67.56-.95.77-.15-.13-.31-.24-.48-.32 1.02-.85 1.79-1.56 2.31-2.13l.65.23c-.25.28-.57.59-.94.93l.19.25 1.11-.83.21.28.54-.41c-.17-.23-.43-.59-.8-1.08l.66-.5c.37.49.64.85.8 1.09l1.18-.89c.07.09.13.19.2.28.79 1.12 1.33 1.89 1.59 2.32.3.48.45.81.44.99 0 .12-.02.23-.07.34-.04.08-.1.16-.19.26-.1.11-.34.3-.71.56-.17-.2-.39-.34-.64-.44.22-.14.43-.28.6-.41.08-.06.12-.14.13-.24.01-.12-.1-.37-.34-.75-.24-.39-.67-1-1.27-1.84l-.52.39c.53.79.88 1.48 1.05 2.06.21.71.2 1.39-.01 2.05m-4.1-1.16.45-.34-.17-.23-.22.17-.22.17zm.45.59.45-.34-.17-.23-.23.17-.22.17zm2.04.47c.23-.19.55-.47.96-.83.02-.42-.07-.87-.26-1.32-.16-.4-.42-.85-.78-1.36l-.53.39-.3-.4-1.12.84.15.2 1.03-.77.6.8.6.79-1.03.77.15.2.53-.4c.12-.09.29-.23.51-.42.02 0 .08.08.19.23.11.14.17.23.16.25-.18.12-.37.24-.54.37l-.53.4zm-1.41-1.87.45-.34-.17-.23-.23.17-.22.17zm.45.59.23-.17.23-.17-.17-.23-.45.34z"/><path d="m29.84 13.77c-.02-.01-.08-.12-.17-.32-.09-.21-.14-.32-.13-.34.2-.07.41-.16.61-.25l.6-.28-.12-.26c-.03-.07-.08-.16-.14-.27.17-.09.35-.17.54-.24.24-.09.36-.12.38-.08-.04.1-.04.2 0 .28l.11.24.61-.28c.13-.06.33-.16.59-.3.02.01.07.11.17.31.09.21.14.32.13.34-.22.07-.49.19-.81.34l-.79.36-.79.37c-.25.09-.51.23-.79.38m.62 1.73c-.02-.01-.08-.13-.18-.34s-.14-.33-.13-.34c.1-.03.22-.08.38-.16l.38-.17c-.14-.24-.35-.49-.63-.76l.59-.41c.28.22.5.47.66.73l-.56.41 1.75-.8-.61.14c-.01-.39-.06-.72-.14-1.01.21-.05.42-.08.62-.09.21-.01.32.01.32.07 0 .04-.01.08-.05.13-.05.07-.07.16-.07.26v.12c0 .17 0 .29-.01.36l.38-.18c.13-.06.26-.12.38-.19.02 0 .07.11.17.32s.15.33.14.36c-.22.07-.5.19-.86.36l-.85.39-.85.39c-.28.11-.55.25-.83.41m1.95 2.3c-.24.11-.39.16-.42.16-.1-.32-.26-.7-.47-1.16l-.27-.57c-.09-.19-.18-.38-.29-.56-.01-.02 0-.03.01-.04.2-.07.43-.16.69-.29l.68-.31.69-.32c.26-.12.49-.24.66-.34.02-.01.03-.01.04.01.07.19.14.39.23.57l.26.56c.21.45.4.82.57 1.1-.02.03-.16.11-.42.23s-.39.17-.41.15c-.01-.01-.01-.02-.02-.05-.01-.04-.02-.07-.04-.09l-.06-.14-1.23.57.07.15c.01.02.02.05.05.08.01.03.02.05.02.06.03.05-.09.12-.34.23m-.05-1.09.61-.28.62-.29-.36-.77-1.23.57zm3.29-.41c-.26.12-.42.18-.46.17-.11-.33-.28-.77-.53-1.31l-.59-1.28-.59-1.28c-.25-.54-.47-.95-.65-1.25-.01-.02.01-.04.04-.06.24-.08.55-.22.95-.39l.93-.43.1-.08.72.05c.04.92.04 1.61.01 2.1.63.21 1.06.57 1.29 1.06.2.43.21.78.04 1.03-.09.13-.21.25-.38.36-.12.07-.29.16-.52.25-.05-.1-.11-.21-.2-.32-.1-.12-.2-.21-.3-.28.16-.06.29-.11.37-.16.1-.06.18-.11.22-.16.07-.11.07-.26-.03-.47-.19-.41-.6-.7-1.22-.88 0-.29-.03-.8-.09-1.51-.01-.09-.01-.17-.02-.21l-.8.37 1.25 2.72c.34.73.63 1.3.89 1.72-.01.04-.16.12-.43.24"/><path d="m38.24 10.37-.56-.17c.23-.24.36-.54.39-.89.15.01.29.03.43.06s.21.06.21.09c0 .02-.01.04-.04.05-.03.03-.06.07-.06.12-.02.12-.05.21-.07.27-.08.18-.18.34-.3.47m4.07 3.8c-.07-.25-.21-.47-.43-.66.32-.05.64-.11.95-.18.13-.03.22-.07.27-.12.08-.11.09-.48.02-1.09l-1.52.34c-.03.51-.21.95-.55 1.31-.37.39-.98.76-1.85 1.1-.06-.09-.14-.19-.26-.31-.12-.11-.23-.2-.33-.27.69-.26 1.2-.51 1.52-.78.29-.24.47-.52.54-.85l-1.63.36-.13-.61-.49.11-.28-1.25.09-.02c-.14-.15-.28-.26-.42-.33.39-.18.66-.37.83-.57.16-.19.24-.41.26-.67.01-.19-.02-.49-.09-.88l.74-.16c.09.48.12.86.09 1.16.45.13.82.24 1.09.34l-.44.58c-.14-.07-.42-.17-.85-.31-.15.27-.39.52-.74.73l1.31-.29 1.32-.29c-.14-.16-.3-.28-.48-.37.36-.18.62-.37.78-.56.16-.18.24-.4.26-.65.01-.19-.01-.47-.07-.83l.76-.17c.08.48.1.86.07 1.14.63.17 1.14.32 1.52.46l-.29.42.31-.07.28 1.25-.59.13c.01.04.02.12.04.24.09.61.13 1.06.13 1.35 0 .31-.04.52-.12.64-.11.17-.31.3-.58.39-.21.06-.56.15-1.04.24m-3.11-1.88 1.48-.33c-.02-.13-.04-.32-.07-.56l-.76.17-.76.17zm1.1-2.55-.54-.07c.12-.3.21-.57.26-.81.19.01.37.04.55.07.17.03.25.06.24.08s-.03.03-.05.04c-.05.01-.08.04-.11.09-.01.02-.03.06-.06.11s-.05.09-.06.11c-.04.08-.1.18-.18.32-.03.03-.04.05-.05.06m.94-.05-.57-.16c.22-.23.35-.53.37-.9.16.01.31.03.44.05.14.03.22.06.22.08s-.01.04-.04.06c-.04.03-.06.07-.06.12-.02.12-.05.21-.07.27-.07.19-.16.35-.29.48m.34 2.07 1.01-.22 1.01-.22-.12-.55-1.98.43c.02.17.05.36.08.56m.09-1.27.93-.2.92-.21c-.26-.1-.61-.22-1.06-.35-.17.28-.43.54-.79.76m1.75-1.4-.56-.07c.15-.3.26-.59.31-.86.19.02.38.04.56.08s.26.07.25.09-.02.03-.06.04c-.05.01-.08.04-.11.09-.02.04-.06.09-.1.17-.02.03-.03.05-.04.07-.05.08-.12.19-.21.34-.02.01-.04.04-.04.05"/><path d="m49.85 13.42c-.14-.19-.31-.36-.51-.51-1.39.13-2.35.22-2.87.26l-.11-.64c.6-.04 1.09-.07 1.47-.1v-.39h-.64c-.15 0-.36.01-.64.03-.02-.01-.02-.11-.02-.3s.01-.28.02-.3c.21.02.42.02.64.02h.64v-.25h-1.24v-.99l-.01-1h1.24v-.23h-.72c-.16 0-.4.01-.71.02-.02-.01-.02-.11-.02-.3s.01-.29.02-.3c.24.02.47.02.71.02h.72v-.26c-.47.03-.88.05-1.22.06-.04-.19-.11-.37-.19-.54 1.33-.07 2.37-.18 3.13-.32l.38.57c-.37.07-.8.13-1.31.18v.32l1.39-.01v.36h.68c.01-.28.01-.73.01-1.35h.83c0 .61 0 1.06-.01 1.35l1.47-.01c0 .11 0 .23-.01.34-.03 1.37-.07 2.31-.11 2.8-.05.56-.12.92-.24 1.06-.07.1-.16.17-.26.23-.08.04-.18.07-.31.1-.15.02-.45.04-.9.03-.02-.26-.11-.5-.25-.73.27.02.51.03.73.03.1 0 .18-.04.24-.11.08-.09.14-.35.18-.8.04-.46.07-1.2.08-2.23h-.65c-.05.95-.18 1.71-.39 2.28-.26.66-.67 1.21-1.24 1.61m-2.58-3.39h.56v-.28h-.28-.28zm0 .75h.56v-.29h-.28-.28zm1.35 1.59c.3-.02.73-.05 1.27-.09.26-.33.46-.74.58-1.21.11-.42.17-.93.19-1.56h-.66v-.5l-1.39.01v.25l1.29-.01v1 .99l-1.28.01v.25h.66c.15 0 .37-.01.66-.03.01.01.02.11.02.29 0 .19-.01.28-.02.3-.22-.02-.44-.02-.66-.02h-.66zm-.01-2.34h.57v-.29h-.29-.28zm.01.74h.28.29v-.29h-.57z"/><path d="m54.81 13.63c-.04-.11-.12-.23-.23-.38s-.21-.27-.3-.37c.88-.22 1.58-.6 2.11-1.15.4-.42.7-.95.91-1.59l-1.07-.22c-.35-.07-.71-.13-1.07-.18-.01-.02.01-.17.07-.43s.09-.4.11-.41c.26.08.62.17 1.08.26l1.09.22.13-.65c.05-.25.08-.47.1-.68.22.04.45.09.68.14.29.08.42.13.42.17-.16.18-.26.37-.3.57l-.13.63 1.44.29 1.44.29c-.03.12-.06.24-.09.36-.33 1.26-.6 2.15-.79 2.66-.2.53-.4.87-.59 1-.12.1-.25.16-.37.19-.11.03-.25.03-.42.02-.26-.02-.64-.1-1.13-.22.01-.12.01-.26-.01-.41-.03-.16-.07-.31-.12-.42.29.08.64.16 1.05.25.14.03.26.02.36-.04.24-.15.6-1.08 1.05-2.8l-1.98-.41c-.23.77-.57 1.41-1.01 1.91-.64.66-1.43 1.13-2.43 1.4"/><path d="m62.56 15.46c.07-.25.08-.48.03-.69.27.14.53.27.79.38.11.05.2.07.27.06.11-.03.28-.25.51-.65l-.86-.38-.1.12-.59-.36c.34-.39.67-.82.98-1.3l1.23.54.18-.41-1.1-.48.02-.04c-.16 0-.34-.01-.54-.03-.04-.25-.1-.48-.19-.7.43.07.87.08 1.3.04-.13-.2-.28-.4-.46-.62l.61-.17c.23.25.4.47.54.68.21-.06.39-.13.55-.21l-.66-.29c-.14-.06-.36-.15-.66-.26-.01-.02.03-.12.11-.31s.13-.28.15-.28c.11.06.25.13.43.21l.43.19.87.38.15.03.39.42c-.49.42-1.11.7-1.85.84l.85.37-.52 1.19c.24-.02.44-.09.58-.21.11-.09.19-.21.26-.37l.18-.42 1.31.58c-.42-.67-.65-1.4-.69-2.2l.7.12c.02.26.06.51.14.74.37-.09.66-.18.85-.27.11.16.19.32.25.49s.06.25.01.26c-.04.01-.08.01-.12-.01-.07-.03-.16-.04-.25-.02-.1.02-.24.05-.41.08-.05.01-.08.01-.11.02.09.16.17.31.24.42.38-.08.71-.17.98-.28.11.16.19.32.25.47.07.17.08.26.03.27-.04.01-.07 0-.12-.01-.07-.02-.15-.03-.25-.01-.22.04-.39.07-.49.09.21.24.47.47.79.71-.19.06-.43.17-.72.35-.22-.19-.43-.39-.63-.61l-.24.54c-.04.08-.05.13-.05.15.01.02.03.04.06.06l.12.05c.05.02.07.03.09.03.04 0 .07-.02.1-.04.02-.03.07-.11.14-.26.08.16.22.32.43.5-.01.01-.02.03-.04.06-.1.16-.17.25-.22.28-.09.06-.19.07-.32.06-.09-.01-.2-.04-.34-.1l-.34-.15c-.19-.09-.32-.19-.38-.32-.03-.07-.05-.16-.04-.23.01-.09.05-.22.12-.38l.15-.34-.59-.26c-.26.51-.67.79-1.25.84-.05-.19-.13-.38-.24-.57l-.06.13c-.01.02-.02.04-.03.08-.01.03-.02.04-.02.05-.01.01-.13-.03-.36-.13s-.34-.16-.34-.18l.01-.01c.01-.01.02-.02.02-.02l.01-.04-.68-.3c-.1.14-.18.26-.25.34l1.47.65c-.04.08-.08.16-.12.24-.23.42-.41.72-.54.9-.15.19-.28.31-.4.35-.17.06-.37.05-.62-.03-.2-.09-.5-.22-.89-.41m1.96.9c0-.21-.04-.43-.11-.65.48.12.9.19 1.27.2-.13-.28-.22-.58-.26-.9l.48.09-.32-.14c-.08-.03-.18-.08-.32-.13-.01-.01.02-.1.09-.26s.11-.24.13-.24c.16.09.34.18.52.26l.54.24 1.07.47.13.04.37.31c-.35.37-.76.63-1.25.77.29.28.64.53 1.05.77-.25.08-.49.2-.71.36-.45-.3-.82-.63-1.12-1-.45 0-.97-.05-1.56-.19m1.87-.51c.26-.05.47-.14.66-.25l-.48-.21-.47-.21c.05.23.15.45.29.67"/><path d="m69.28 18.76c-.03-.11-.09-.24-.17-.39-.08-.17-.15-.29-.22-.38.51-.17 1.02-.5 1.53-1.01.34-.33.71-.78 1.12-1.34l.56-.77c.23-.32.41-.59.52-.79.02-.03.04-.04.06-.02.28.24.65.53 1.1.86l1.13.82 1.13.82c.45.33.84.59 1.16.78.02.02.02.04.01.07-.15.15-.33.38-.54.68l-.52.71-.8-.58-.25.34.42.31c.14.1.29.2.43.29.01.02-.06.11-.18.29s-.2.26-.21.26c-.09-.08-.23-.19-.41-.32l-.42-.31-.26.36.55.4c.13.09.32.22.57.38 0 .02-.06.12-.19.29-.13.18-.2.26-.22.26-.06-.06-.16-.14-.29-.24l-.31-.23.24.55c-.35-.02-.7-.07-1.07-.14.18.36.45.72.8 1.08-.26.02-.52.09-.78.21-.54-.61-.87-1.25-.98-1.92l-.28.44c-.34-.18-.86-.46-1.54-.83-.4-.22-.68-.37-.85-.46l.31-.63c.23.13.44.26.65.37l.57-.8-.31-.22c-.07-.05-.17-.12-.31-.21-.01-.02.06-.11.18-.29.12-.17.19-.26.21-.26.1.09.25.2.44.34l.45.33.26-.35-.37-.27c-.12-.09-.25-.17-.37-.25-.01-.01.05-.11.18-.29.12-.17.19-.26.21-.26.08.08.21.17.36.28l.37.27.25-.35-.86-.62-.09.13c-1.03 1.43-2.02 2.3-2.97 2.61m2.49.6c.06.03.15.08.27.14.11.06.18.1.24.13.11.07.28.16.51.28-.03-.29-.02-.6.02-.91l-.51-.37zm.96-3.86 3.1 2.25.26-.37-1.55-1.12-1.55-1.13zm.23 2.83.87.64.26-.35-.44-.32-.44-.32zm.57 1.75c.31.04.6.07.86.08l-.46-.33-.46-.34c0 .2.02.4.06.59m.06-2.62.88.64.25-.35-.44-.32-.44-.32z"/><path d="m76.29 24.51c-.2-.22-.29-.34-.29-.37.17-.12.37-.28.59-.48l.57-.51c-.33-.2-.66-.42-1.01-.66.04-.09.07-.21.12-.35.04-.16.07-.29.07-.38.83.63 1.69 1.17 2.56 1.61l-.9-1.01c-.28-.31-.6-.64-.94-.97.01-.03.09-.11.23-.24s.23-.19.25-.2c.2.27.45.57.74.9l.78.87.23-.21-.58-.64c-.17-.19-.37-.4-.6-.62 0-.02.07-.09.21-.22.13-.12.21-.18.23-.18.14.19.33.41.55.66l.58.64.19-.15-1.28-1.42.55-.5c.22-.2.39-.37.53-.53.02-.02.04-.02.06-.01.22.3.52.65.89 1.07l.93 1.04 1.87 2.08-.55.5c-.22.19-.4.37-.53.53-.02.02-.04.02-.06.01-.22-.3-.52-.66-.91-1.09l-.94-1.05-.19.17 1.07 1.18-.24.22c.31.07.58.12.83.14.04.2.06.38.06.57s-.02.28-.07.27c-.04-.01-.08-.03-.11-.06-.06-.06-.14-.1-.24-.11-.18-.04-.36-.08-.56-.13l.41.45c.09.1.23.24.42.43 0 .02-.07.09-.21.22s-.22.19-.24.19c-.14-.19-.33-.41-.56-.67l-.58-.65c.18.34.3.61.36.83l-.32-.04.32.36-.8.72c-.31.27-.56.53-.77.76-.03-.01-.15-.12-.36-.35s-.3-.35-.29-.37l.01-.01c.02-.01.03-.02.04-.03l.06-.05-1.77-1.97-.06.06c-.01 0-.01.01-.03.03-.01.02-.02.02-.02.03-.01 0-.11-.1-.3-.31m.8-.15 1.76 1.96.2-.18-.88-.98-.88-.98zm.53-.47.88.98.88.99.2-.18-1.77-1.96zm1.25.2.51.57.51.57c-.1-.24-.21-.46-.31-.66l.44.05-.06-.06c-.34-.13-.7-.28-1.09-.47m.65-3.26.25.28.26.29.32-.29-.51-.57zm.1 2.53.49.55c.19.07.39.14.59.2l-.43-.48-.43-.47zm.94-1.37.53.58.32-.29-.26-.29-.26-.29zm1.05 1.16.53.59.33-.29-.27-.3-.27-.3z"/><path d="m15.78 33.58v-.02l-3.46-2.44.43-.88 4.99 1.38-.34.7-3.81-1.12-.01.01 3.25 2.31-.44.9-3.83-1.09v.01l3.25 2.29-.32.67-4.2-3.03.43-.89z"/><path d="m14.94 38.16c-.29.88-1.31 1.44-3.03.87-1.72-.58-2.19-1.64-1.9-2.52s1.3-1.45 3.03-.87 2.2 1.64 1.9 2.52m-4.25-1.43c-.17.49.18 1.05 1.5 1.49s1.92.21 2.09-.29c.17-.49-.17-1.05-1.49-1.5-1.33-.43-1.94-.19-2.1.3"/><path d="m14.17 40.42-.31 1.37c-.17.78-.69 1.22-1.59 1.02-.65-.15-1-.6-.97-1.12h-.02c-.06.16-.19.32-.68.35l-2.01.15.19-.86 1.7-.07c.41-.02.59-.2.65-.49l.04-.18-2.12-.49.18-.8zm-2.41.65c-.1.43.09.77.59.89.57.13.77-.11.87-.56l.07-.33-1.46-.33z"/><path d="m13.41 44-.1.82-2.13-.27-.01.02 1.99 1.53-.12.94-2.19-1.81-2.86 1.3.12-.99 2.53-1.04v-.02l-2.36-.3.1-.81z"/><path d="m13.03 47.65-.08 2.27-.74-.03.05-1.44-1.38-.06-.05 1.39-.74-.03.04-1.39-2.21-.08.02-.83z"/><path d="m13.1 52.13c.05.93-.69 1.84-2.52 1.94-1.83.11-2.66-.7-2.71-1.64-.05-.93.69-1.84 2.52-1.94s2.66.71 2.71 1.64m-4.51.27c.02.52.55.91 1.95.83s1.88-.53 1.85-1.05-.55-.91-1.95-.83c-1.41.07-1.88.52-1.85 1.05"/><path d="m13.22 54.55.22 1.39c.12.79-.2 1.39-1.12 1.53-.65.1-1.15-.19-1.31-.68h-.02c-.01.17-.06.37-.51.58l-1.83.88-.13-.87 1.57-.7c.38-.17.48-.4.43-.7l-.03-.19-2.16.34-.12-.82zm-2.01 1.48c.06.44.36.69.88.61.57-.09.68-.38.61-.84l-.05-.33-1.49.23z"/><path d="m9.73 62.11c-.14-.14-.32-.5-.42-.9-.34-1.32.57-2.28 2-2.65s2.69.02 3.02 1.32c.11.44.07.84.04 1.02l-.82.17c.05-.19.16-.49.06-.89-.17-.66-.82-1.1-2.09-.77s-1.63 1.03-1.45 1.69c.1.39.27.61.47.76z"/><path d="m14.79 61.57.8 2.21-.7.25-.52-1.44-1.28.46.49 1.36-.69.25-.5-1.36-1.41.5.54 1.5-.7.25-.82-2.27z"/><path d="m16.58 66.05.55 1.03c.66 1.24.25 2.3-1.24 3.09-1.51.81-2.67.4-3.25-.7l-.55-1.03zm-3.48 2.78.13.24c.43.82 1.26.85 2.24.32s1.42-1.23.99-2.05l-.13-.24z"/><path d="m18.51 69.55 1.31 1.95-.62.42-.85-1.27-1.12.75.81 1.2-.62.41-.8-1.2-1.24.84.88 1.32-.61.42-1.35-2.01z"/><path d="m20.08 71.92.56.68-2.47 3.15.01.01 3.63-1.72.54.65-4.82 2.12-.55-.67z"/><path d="m22.65 74.99 1.64 1.7-.53.51-1.07-1.1-.98.94 1.01 1.04-.53.52-1.01-1.05-1.09 1.04 1.12 1.15-.54.51-1.69-1.74z"/><path d="m24.82 77.21.62.55-2.84 3.25 1.11.98-.48.56-1.73-1.53z"/><path d="m28.44 80.03c.76.55 1 1.69-.07 3.17s-2.23 1.61-2.99 1.06-1-1.69.07-3.16c1.08-1.49 2.23-1.62 2.99-1.07m-2.64 3.65c.42.31 1.06.15 1.88-.98s.77-1.78.35-2.09c-.43-.31-1.06-.15-1.88.98-.83 1.13-.78 1.78-.35 2.09"/><path d="m30.4 81.45 1.12.64c.8.46.93 1.21.45 2.04s-1.2 1.1-2 .64l-.41-.23-.99 1.72-.72-.41zm-.2 2.62c.45.26.79.12 1.06-.36.28-.48.22-.83-.23-1.09l-.27-.15-.83 1.44z"/><path d="m36.13 85.3-.02-.01-2.74 3.42-.53-.23.73-4.31h-.02l-1.71 3.87-.68-.3 2.06-4.65 1.12.5-.69 3.84h.02l2.39-3.08 1.09.48-2.05 4.64-.69-.3z"/><path d="m38.03 85.08 2.26.69-.22.71-1.47-.45-.41 1.29 1.39.43-.22.7-1.39-.42-.45 1.43 1.54.47-.22.7-2.33-.71z"/><path d="m41.03 85.97.96.2.69 4.2h.02l.76-3.91.74.15-.98 4.98-.97-.19-.69-4.18h-.01l-.76 3.89-.74-.15z"/><path d="m45.6 87.54-.99-.11.08-.73 2.8.3-.08.74-.99-.11-.46 4.3-.82-.09z"/><path d="m51.81 90.86-1.55.04-.29 1.23-.82.02 1.36-5.12.9-.02 1.6 5.05-.85.02zm-.19-.7-.64-2.36h-.01l-.55 2.39z"/><path d="m55.31 88.9 1.44-.19.33 2.63c-.21.17-.59.34-1.17.42-1.43.19-2.32-.81-2.51-2.3s.43-2.69 1.86-2.88c.51-.07.93.01 1.11.07l.06.84c-.29-.15-.66-.23-1.07-.17-.87.11-1.23.98-1.1 2.03.14 1.13.69 1.79 1.52 1.69.19-.02.36-.09.46-.16l-.17-1.36-.67.09z"/><path d="m57.28 86.35 2.32-.54.16.72-1.5.35.29 1.32 1.43-.34.16.72-1.42.34.33 1.45 1.57-.36.16.72-2.37.55z"/><path d="m60.37 85.63.92-.31 2.68 3.28h.01l-1.26-3.76.7-.24 1.62 4.8-.94.31-2.66-3.27-.01.01 1.25 3.73-.7.24z"/><path d="m68.9 87.55c-.11.16-.44.4-.8.57-1.23.56-2.33-.17-2.95-1.51-.61-1.34-.44-2.65.76-3.21.41-.19.81-.22.99-.22l.31.77c-.19-.01-.5-.07-.88.1-.62.28-.93 1-.38 2.19.54 1.19 1.29 1.42 1.91 1.14.36-.17.55-.37.66-.59z"/><path d="m69.71 84.91-2.68-1.98.77-.44 1.78 1.32-.3-2.17.77-.44.38 3.31 1.01 1.75-.71.41z"/><path d="m72.63 84.42.56 1.77-.52.34-.69-1.69z"/><path d="m75.68 77.86h-.01l1.91 3.96-.44.38-3.59-2.52-.01.01 2.77 3.22-.57.49-3.32-3.86.93-.81 3.19 2.28.01-.01-1.76-3.5.91-.77 3.32 3.86-.57.49z"/><path d="m76.27 76.1.58-.59 3.66 3.52-.57.59z"/><path d="m77.56 74.8.62-.76 4.01 1.38.01-.01-3.07-2.53.47-.58 3.91 3.23-.62.76-3.99-1.37v.01l3.05 2.52-.48.57z"/><path d="m80.1 71.57.48-.67 4.15 2.93-.47.67z"/><path d="m84.63 72.23c.18-.08.53-.28.75-.66.18-.31.16-.7-.28-.97-.31-.19-.54-.11-.96.1l-.44.22c-.46.24-.95.28-1.52-.06-.78-.47-.85-1.29-.46-1.94.24-.41.53-.63.64-.71l.65.44c-.17.13-.42.29-.62.61-.21.36-.11.67.19.85.32.2.57.08.83-.05l.51-.26c.55-.28.96-.33 1.57.04.88.54.98 1.35.54 2.09-.23.39-.47.65-.72.76z"/><path d="m83.74 67.05-.45.89-.66-.32 1.26-2.53.66.33-.44.89 3.88 1.92-.37.73z"/><path d="m84.06 64.64.5-1.31c.29-.75.86-1.11 1.73-.77.62.23.9.74.8 1.24l.02.01c.09-.15.24-.29.73-.26l2.02.14-.31.82-1.7-.17c-.41-.04-.61.11-.72.39l-.07.17 2.04.78-.29.77zm2.48-.29c.16-.41.02-.78-.45-.96-.54-.21-.78-.01-.94.43l-.12.31 1.4.54z"/><path d="m88.38 61.6-3.3.42.25-.85 2.2-.27-1.72-1.36.25-.85 2.57 2.12 1.94.57-.23.79z"/><path d="m86.63 54.92c.12-.92 1.01-1.66 2.82-1.42s2.48 1.2 2.36 2.12-1.01 1.66-2.82 1.42-2.48-1.19-2.36-2.12m4.48.61c.07-.52-.37-1-1.76-1.19-1.38-.19-1.94.16-2.01.67-.07.52.37 1 1.76 1.19s1.94-.15 2.01-.67"/><path d="m86.96 52.43.08-2.27.74.03-.04 1.45 1.38.05.04-1.39.75.03-.05 1.39 2.22.08-.03.83z"/><path d="m87.01 47.75-.07-.83 4.3-.38-.13-1.48.73-.06.2 2.31z"/><path d="m90.13 41.97.27 1.51 1.26.11.14.8-5.25-.59-.16-.88 4.73-2.3.15.83zm-.67.3-2.23.97v.01l2.44.19z"/><path d="m85.99 41.08-.36-1.26c-.26-.89.01-1.4.83-1.63.78-.22 1.13.15 1.33.4h.01c-.01-.36.12-.91.94-1.14.89-.25 1.53.19 1.75.95l.37 1.31zm1.83-1.34-.12-.41c-.11-.39-.5-.52-.9-.41-.41.12-.58.45-.48.82l.11.39zm2.15-.6-.12-.44c-.12-.43-.48-.58-.94-.45-.43.12-.69.41-.56.89l.12.42z"/><path d="m84.35 36.26c-.34-.86.06-1.95 1.75-2.64s2.73-.19 3.08.67-.06 1.95-1.75 2.64-2.73.19-3.08-.67m4.17-1.69c-.19-.48-.81-.68-2.1-.16s-1.6 1.1-1.41 1.58.81.68 2.1.16c1.29-.53 1.6-1.1 1.41-1.58"/><path d="m83.43 33.95-.66-1.24c-.37-.7-.27-1.37.56-1.8.59-.31 1.15-.19 1.46.21l.02-.01c-.05-.16-.06-.37.29-.71l1.44-1.41.41.77-1.25 1.15c-.31.28-.32.53-.18.8l.09.17 1.93-1.01.39.73zm1.41-2.05c-.2-.39-.57-.53-1.03-.29-.52.27-.52.57-.3.98l.16.29 1.33-.68z"/></g><g clip-path="url(#a)"><path clip-path="url(#b)" d="m82.69 50c0 18.06-14.64 32.7-32.69 32.7s-32.7-14.64-32.7-32.7 14.64-32.69 32.69-32.69 32.7 14.64 32.7 32.69" fill="#fccc00"/></g><path clip-path="url(#c)" d="m46.65 82.53c1.1.11 2.22.17 3.35.17 13.02 0 24.23-7.63 29.48-18.64l-16.19-43.91c-4.06-1.81-8.55-2.84-13.29-2.84-9.32 0-17.7 3.92-23.66 10.17z" fill="#93d2d7"/><path clip-path="url(#c)" d="m50 82.7c18.06 0 32.7-14.64 32.7-32.7 0-11.14-5.58-20.96-14.09-26.87-.62 4.34-2.27 10.25-6.17 17.53-11.6 21.6-13.98 34.91-14.11 41.95.55.03 1.1.09 1.67.09" fill="#93d2d7"/><path clip-path="url(#c)" d="m50 82.7c13.02 0 24.23-7.63 29.48-18.64l-12.51-33.95c-.99 3.1-2.42 6.62-4.53 10.55-11.6 21.6-13.98 34.91-14.11 41.95.55.03 1.1.09 1.67.09" fill="#61c1ba"/><path clip-path="url(#c)" d="m59.67 18.77c-3.06-.95-6.31-1.46-9.68-1.46-18.05 0-32.69 14.64-32.69 32.69 0 13.47 8.14 25.02 19.77 30.03z" fill="#e6e6e6"/><path clip-path="url(#c)" d="m20.37 40.66c-.39-.72-.64-1.36-.99-2.05-1.32 3.55-2.08 7.38-2.08 11.39 0 12.32 6.82 23.04 16.89 28.61-.88-7.65-4.12-19.88-13.82-37.95" fill="#ee742b"/><path d="m25.08 67.07h15.61s18.35-21.37 24.48-42.02c0 0-11.71 11.56-27.86 18.98 0 0 5.69.26 12.25-.6-5.57 7.42-15.46 16.28-24.48 23.64" fill="#fff"/><path d="m26.89 47.71c-.01.01-.01.02-.01.03 2.35-2.97 9.91-2.77 17.41.75.24.11.47.23.7.35.65-.7 1.26-1.4 1.86-2.08-9.32-3.64-17.94-3.35-19.96.95" fill="#fff"/><path d="m64.63 63.44c-.28-6.07-6.67-10.62-11.4-13.59-8.92-5.64-23.93-8.08-26.35-2.11 3.98-4.92 18.44-.26 24.41 5.08 9.31 7.61 2.47 15.31-7.99 11.04-.44.56-.84 1.05-1.18 1.47 2.36 1.33 4.69 2.27 6.92 2.9 0 .01-.01.02-.01.02 1.97.55 3.85.84 5.58.9h.01c3.94.19 9.67-.98 10.01-5.71" fill="#fff"/></svg>